<?xml version="1.0" standalone="no"?><!DOCTYPE svg PUBLIC "-//W3C//DTD SVG 1.1//EN" "http://www.w3.org/Graphics/SVG/1.1/DTD/svg11.dtd"><svg width="100%" height="100%" viewBox="0 0 191 83" version="1.1" xmlns="http://www.w3.org/2000/svg" xmlns:xlink="http://www.w3.org/1999/xlink" xml:space="preserve" style="fill-rule:evenodd;clip-rule:evenodd;stroke-linejoin:round;stroke-miterlimit:1.41421;"><g><path d="M77.452,44.234l-9.525,25.688l-1.016,-5.22c-2.372,-6.399 -7.507,-13.113 -13.489,-15.835l8.715,32.985l10.301,-0.005l15.318,-37.613l-10.304,0Z" style="fill:#2a59a9;fill-rule:nonzero;"/><path d="M85.617,81.889l6.089,-37.691l9.732,0l-6.093,37.691l-9.728,0Z" style="fill:#2a59a9;fill-rule:nonzero;"/><path d="M130.649,45.128c-1.923,-0.761 -4.957,-1.587 -8.721,-1.587c-9.627,0 -16.391,5.117 -16.449,12.436c-0.063,5.421 4.836,8.446 8.517,10.247c3.8,1.842 5.07,3.025 5.058,4.674c-0.037,2.526 -3.04,3.676 -5.831,3.676c-3.891,0 -5.963,-0.567 -9.152,-1.969l-1.264,-0.601l-1.362,8.435c2.277,1.049 6.479,1.959 10.848,2.006c10.217,0 16.864,-5.058 16.943,-12.871c0.041,-4.3 -2.559,-7.555 -8.179,-10.242c-3.393,-1.746 -5.49,-2.904 -5.459,-4.676c0.003,-1.563 1.76,-3.24 5.576,-3.24c3.187,-0.053 5.479,0.679 7.282,1.449l0.869,0.433l1.324,-8.17Z" style="fill:#2a59a9;fill-rule:nonzero;"/><path d="M155.608,44.237l-7.519,0c-2.331,0 -4.077,0.664 -5.106,3.128l-14.447,34.535l10.221,0c0,0 1.672,-4.647 2.05,-5.667c1.114,0 11.042,0.024 12.459,0.024c0.301,1.313 1.185,5.643 1.185,5.643l9.037,0l-7.88,-37.663ZM143.607,68.524c0.807,-2.163 3.877,-10.535 3.877,-10.535c-0.06,0.103 0.798,-2.179 1.294,-3.591l0.648,3.249c0,0 1.869,8.995 2.26,10.877c-1.516,0 -6.182,0 -8.079,0Z" style="fill:#2a59a9;fill-rule:nonzero;"/><path d="M59.091,44.216l-15.694,0l-0.092,0.648c12.203,3.121 20.255,10.785 23.606,19.849l-3.411,-17.322c-0.586,-2.383 -2.294,-3.091 -4.409,-3.175Z" style="fill:#f19c23;fill-rule:nonzero;"/><path d="M13.957,35.108l-6.206,0l-7.158,-32.27l6.859,-1.146l4.897,25.253l12.476,-24.919l6.588,0l-17.456,33.082Z" style="fill:#2a59a9;fill-rule:nonzero;"/><path d="M46.23,24.559l-14.799,0c-0.405,4.487 1.681,6.444 5.214,6.444c2.96,0 5.563,-1.098 8.366,-2.864l-0.023,4.487c-2.747,1.719 -5.924,2.817 -9.647,2.817c-6.445,0 -10.7,-3.676 -9.422,-11.983c1.154,-7.495 6.339,-12.029 12.354,-12.029c6.922,0 9.224,5.203 8.218,11.743c-0.074,0.477 -0.21,1.051 -0.261,1.385ZM37.52,15.393c-2.292,0 -4.432,1.813 -5.443,5.586l9.165,0c0.17,-3.581 -0.953,-5.586 -3.722,-5.586Z" style="fill:#2a59a9;fill-rule:nonzero;"/><path d="M55.876,21.742l-2.035,13.223l-5.729,0l3.549,-23.057l4.869,0l0.003,4.631c1.94,-2.674 4.576,-4.917 8.186,-5.108l0.033,5.68c-3.617,0.24 -6.871,2.149 -8.876,4.631Z" style="fill:#2a59a9;fill-rule:nonzero;"/><path d="M64.677,34.965l3.548,-23.057l5.729,0l-3.549,23.057l-5.728,0ZM71.733,8.041c-1.909,0 -3.231,-1.336 -2.937,-3.246c0.301,-1.957 2.041,-3.341 3.95,-3.341c1.863,0 3.177,1.384 2.876,3.341c-0.294,1.91 -2.027,3.246 -3.889,3.246Z" style="fill:#2a59a9;fill-rule:nonzero;"/><path d="M89.818,5.607c-1.958,0 -3.139,0.859 -3.456,2.912l-0.521,3.389l4.391,0l-0.004,4.678l-5.107,0l-2.829,18.379l-5.681,0l2.829,-18.379l-3.342,0l0.72,-4.678l3.342,0l0.61,-3.962c0.786,-5.108 4.326,-7.017 9.052,-7.017c1.003,0 1.752,0.095 2.31,0.191l0.044,4.678c-0.559,-0.095 -1.404,-0.191 -2.358,-0.191Z" style="fill:#2a59a9;fill-rule:nonzero;"/><path d="M89.881,34.965l3.548,-23.057l5.729,0l-3.549,23.057l-5.728,0ZM96.937,8.041c-1.909,0 -3.231,-1.336 -2.937,-3.246c0.301,-1.957 2.041,-3.341 3.95,-3.341c1.863,0 3.177,1.384 2.876,3.341c-0.293,1.91 -2.027,3.246 -3.889,3.246Z" style="fill:#2a59a9;fill-rule:nonzero;"/><path d="M121.368,24.559l-14.799,0c-0.405,4.487 1.68,6.444 5.214,6.444c2.96,0 5.563,-1.098 8.366,-2.864l-0.024,4.487c-2.747,1.719 -5.923,2.817 -9.647,2.817c-6.445,0 -10.699,-3.676 -9.421,-11.983c1.153,-7.495 6.339,-12.029 12.354,-12.029c6.921,0 9.224,5.203 8.217,11.743c-0.073,0.477 -0.21,1.051 -0.26,1.385ZM112.658,15.393c-2.292,0 -4.433,1.813 -5.443,5.586l9.165,0c0.169,-3.581 -0.954,-5.586 -3.722,-5.586Z" style="fill:#2a59a9;fill-rule:nonzero;"/><path d="M138.335,34.965l0.015,-3.198c-1.925,1.957 -4.433,3.676 -7.631,3.676c-4.822,0 -8.137,-3.581 -6.939,-11.362c1.322,-8.592 6.635,-12.412 11.982,-12.412c2.196,0 3.904,0.383 5.215,0.859l1.712,-11.123l5.868,-0.906l-5.305,34.466l-4.917,0ZM140.249,17.255c-1.329,-0.669 -2.376,-1.003 -4.333,-1.003c-3.007,0 -5.578,2.435 -6.356,7.495c-0.691,4.487 0.895,6.588 3.426,6.588c2.1,0 3.914,-1.241 5.735,-3.151l1.528,-9.929Z" style="fill:#2a59a9;fill-rule:nonzero;"/><path d="M160.801,35.183c-2.712,0 -4.923,-0.435 -6.98,-1.158l3.767,-24.48l4.445,-0.687l-1.63,10.595c1.299,-1.158 3.103,-2.315 5.309,-2.315c3.689,0 6.158,2.749 5.257,8.607c-0.99,6.436 -4.961,9.438 -10.168,9.438ZM164.001,20.971c-1.446,0 -2.898,0.977 -4.183,2.279l-1.219,7.918c0.854,0.326 1.446,0.47 2.676,0.47c2.748,0 4.668,-1.663 5.28,-5.64c0.518,-3.363 -0.601,-5.027 -2.554,-5.027Z" style="fill:#2a59a9;fill-rule:nonzero;"/><path d="M181.192,35.905c-2.217,4.303 -4.411,5.641 -7.775,5.641c-0.759,0 -1.181,-0.072 -1.562,-0.181l-0.028,-3.579c0.556,0.144 1.154,0.253 1.986,0.253c1.265,0 2.367,-0.579 3.104,-1.844l0.576,-1.157l-3.679,-17.213l4.609,-0.578l2.136,12.438l5.78,-12.185l4.304,0l-9.451,18.405Z" style="fill:#2a59a9;fill-rule:nonzero;"/></g></svg>